<?xml version="1.0" encoding="UTF-8"?>
<!DOCTYPE svg PUBLIC "-//W3C//DTD SVG 1.1//EN" "http://www.w3.org/Graphics/SVG/1.1/DTD/svg11.dtd">
<!-- Creator: CorelDRAW 2020 (64-Bit) -->
<svg xmlns="http://www.w3.org/2000/svg" xml:space="preserve" width="2020px" height="741px" version="1.1" shape-rendering="geometricPrecision" text-rendering="geometricPrecision" image-rendering="optimizeQuality" fill-rule="evenodd" clip-rule="evenodd"
viewBox="0 0 2020 741.15"
 xmlns:xlink="http://www.w3.org/1999/xlink"
 xmlns:xodm="http://www.corel.com/coreldraw/odm/2003">
 <defs>
   <clipPath id="id0">
    <path d="M-0.2 0.5l2020 0 0 741.15 -2020 0 0 -741.15z"/>
   </clipPath>
 </defs>
 <g id="Capa_x0020_1">
  <metadata id="CorelCorpID_0Corel-Layer"/>
  <g>
  </g>
  <g clip-path="url(#id0)">
   <g>
    <path id="Express"  d="M1806.63 577.65c-3.72,9.45 -6.1,22.49 -8.36,32.65 -4.32,19.34 -8.41,47.7 8.14,63.65 14.67,14.15 48.54,17.11 68.94,13.29 33.52,-6.28 54.5,-23.97 66.88,-56.07 21.53,-55.86 17.71,-79.2 -17.56,-117.43 -11.53,-12.49 -33.42,-33.89 -31.24,-49.18 1.43,-10.07 9.13,-20.6 23.5,-16.38 11.56,3.4 0.69,19.36 1.13,31.26 9.83,0.21 56.7,1.63 61.85,-0.8 3.36,-3.6 5.55,-26.91 5.52,-34.53 -0.18,-39.59 -28.85,-53.17 -72.33,-49.54 -48.43,4.04 -73.18,38.64 -81.47,80.97 -2.22,11.33 -0.46,25.49 3.37,34.96 1.89,4.69 4.03,8.97 7.19,13.41l26.91 33.74c3.22,3.7 5.97,7.22 8.88,10.96 2.37,3.05 6.1,8.08 7.91,11.99 5.21,11.25 4.15,22.29 1.38,34.48 -2.28,10.01 -6.21,20.22 -19.71,20.23 -19.04,0 -8.18,-26.15 -4.52,-41.85 1.12,-4.82 3.65,-10.93 3.27,-15.81l-59.68 0zm-166.34 0.17c-2.1,3.57 -6.99,25.73 -8.34,31.77 -2.48,11.13 -4.4,23.42 -3.59,36.28 3.49,55.07 84.79,47.5 111.94,30.46 8.45,-5.3 15.15,-11.84 21.16,-19.77 5.05,-6.67 11.71,-17.9 14.72,-25.75 29.38,-76.36 6.47,-86.9 -36.56,-138.41 -6.71,-8.04 -13.49,-15.39 -12.41,-28.16 0.54,-6.32 3.09,-10.48 7.24,-13.53 3.13,-2.3 25.87,-10.5 20.26,11.72 -1.04,4.15 -2.99,12.62 -3.08,16.89l61.92 -1c4.06,-4.38 5.46,-26.82 5.44,-34.21 -0.09,-41.87 -31.9,-52.83 -72.34,-49.53 -49.01,3.98 -73.33,40.04 -81.27,80.43 -6.26,31.81 9.55,49.55 27.88,71.1 3.54,4.16 5.31,7.15 8.8,11.13 15.98,18.27 25.88,28.73 19,57.28 -2.45,10.19 -5.75,20.28 -19.12,20.83 -24.86,1.02 -1.61,-41.44 -1.45,-57.68l-60.2 0.15zm-169.38 107.91c34.92,1.19 82.47,0.18 120.08,0.28 4.38,0.01 5.67,0.31 7.15,-1.02 2.32,-2.62 13.15,-49.16 12.92,-55.17l-62.95 -0.03c-0.44,-3.83 14.71,-63.44 16.48,-66.3l44.23 -0.18c14.56,-0.04 13.47,1.58 15.49,-7.25l4.84 -20.15c1.56,-6.87 6.06,-20.97 6.03,-26.92l-57.17 -0.12c-0.53,-4.47 7.78,-33.21 9.65,-41.48 0.37,-1.59 2.82,-12.9 4.02,-13.87 8.62,-3.82 53.43,2.18 60.29,-1.63 1.81,-1.58 13.45,-52.22 13.27,-55l-123.75 -0.07c-1.58,11.45 -5.79,25.13 -8.44,36.48l-53.77 216.54c-1.34,5.19 -8.64,32.54 -8.37,35.89zm-63.73 -181.82c0.11,-4.3 11.21,-50.99 12.48,-53.38 27.26,-3.09 27.51,4.8 20.88,28.76 -7.72,27.92 -15.92,24.48 -33.36,24.62zm-108.59 181.96l62.26 0.1 32.6 -131.34c4.78,-1.75 15.24,-0.07 18.11,3.21 3.89,4.43 1.11,14.06 -0.08,18.93l-18.06 72.73c-1.54,5.48 -8.52,32.18 -8.19,36.46l59.52 0.02c4.71,-14.69 26.73,-101.61 29.75,-117.17 1.84,-9.5 1.19,-21.77 -6.61,-28.49 -2.82,-2.43 -6.38,-3.07 -8.14,-4.99 2.67,-5.42 23.72,-3.76 37.35,-42.77 6.79,-19.42 23.55,-79.31 -6.91,-91.31 -12.51,-4.93 -21.59,-4.44 -36.65,-4.44 -27.89,-0.01 -55.79,-0.05 -83.69,0.01l-26.78 108.35c-2.63,12.07 -6.26,24.14 -9.06,36.29 -2.75,11.92 -5.95,23.86 -8.94,35.48l-17.85 72.8c-1.64,6.27 -8.58,31.89 -8.63,36.13zm-67.85 -167.21c0.4,-6.04 2.6,-12.08 3.92,-18.1 1.25,-5.72 3.01,-11.31 4.31,-17l8.49 -34.04c11.67,-0.56 21.85,-0.08 22.77,11.2 0.82,9.94 -1.67,19.54 -4.07,28.06 -4.61,16.38 -12.1,32.7 -32.82,30.45l-2.6 -0.57zm-13.18 52.87c28.19,-0.97 46.46,2.58 69.61,-12.31 32.23,-20.72 54.95,-100.2 43.98,-133.5 -10.99,-33.35 -43.65,-28.91 -78.06,-28.91 -15.21,0 -40.01,-1.36 -54.1,0.42 -1.48,11.87 -6.16,25.08 -8.71,36.26 -2.65,11.59 -5.74,23.94 -8.68,36.07l-8.91 36.45c-3.6,11.74 -5.55,23.35 -9.04,35.43 -3.32,11.48 -6.1,24.34 -8.9,36.4 -4.42,19.06 -26.58,100.98 -25.69,108.12l59.7 0.01c2.34,-8.76 26.61,-109.99 28.8,-114.44zm-271.75 114.05l61.66 0.08c5.07,-8.13 41.96,-103.36 47.05,-109.79l-7.82 109.58c5.27,1.47 53.87,0.61 62.99,0.45l4.29 -148.87c0.21,-8.75 27.69,-66.03 32.88,-78.02 4.36,-10.06 9.61,-20.87 13.75,-30.83 3.05,-7.37 12.67,-26.37 13.32,-31.6l-60.33 0.02c-10.11,25.86 -24.94,62.37 -34.43,88.85l-3 6.06 7.15 -94.51c-9.16,-1.67 -43.78,-0.65 -55.27,-0.5 -7.64,0.1 -5.31,1.16 -6.32,19.64l-5.88 112.23c-0.23,6.76 -15.93,37.34 -19.78,46.51l-17.21 36.32c-4.79,10.71 -33.1,68.68 -33.05,74.38zm54.11 -288.76l-123.89 0.38 -26.95 109.03c-3.27,12.02 -5.22,23.56 -8.7,35.68l-17.88 71.86c-2.19,9.02 -17.4,67.98 -17,72.2l125.74 -0.01c2.03,-0.77 1.02,-0.12 2.05,-2.24 2.9,-5.92 12.46,-52.78 12.37,-53.89l-63.96 -0.4 16.07 -65.61c12.05,-2.06 51.39,1.66 58.1,-1.12 2.42,-1.4 13.47,-50.55 13.84,-53.75l-57.37 -0.1c-0.14,-3.29 11.6,-52.2 13.25,-56.1l60.99 -0.14 13.34 -55.79z"/>
    <path id="Clean" d="M1401.39 347.04c11.62,0.55 41.88,0.65 50.57,-2.58 6.35,-11.49 -1.47,-144.77 2.24,-172.42 18.07,-7.79 31.58,-8.86 33.8,12.42 1.63,15.56 0.54,87.27 0.54,108.65 0,16.33 -1.34,38.12 0.21,53.78 9.39,1.16 30.84,0.23 40.88,-0.39 16.61,-1.03 13.58,-2.37 13.58,-26.22 0,-27.23 1.61,-135.89 -1.16,-153.98 -3.74,-24.47 -16.95,-34.73 -43.74,-38.78 -29.59,-4.47 -64.67,1.67 -91.82,10.55 -4.15,1.36 -4.94,1.04 -5.51,4.63 -0.42,2.64 -0.66,197.7 0.41,204.34zm-82.48 -96.56c1.66,12.1 0.29,32.7 0,45.56 -0.18,8.45 1.77,13.1 -7.64,15.19 -8.89,1.97 -15.33,0.13 -18.5,-5.73 -4.52,-8.36 -3.89,-31.12 -2.11,-41.15 2.95,-16.56 11.64,-19.93 28.25,-13.87zm-77.48 -70.01c4.59,0.44 21.25,-4.4 27.82,-5.39 21.51,-3.23 48.53,-8.42 49.91,12.24 0.56,8.46 0.69,22.75 -0.17,31.08 -27.65,-11.38 -57.29,-6.51 -72.12,11.77 -13.22,16.3 -15.71,53.21 -11.13,76.88 5.29,27.34 19.69,40.45 50.83,43.7 28.64,2.98 63.23,-1.5 83.14,-13.26 2.31,-31.72 2.09,-64.87 2.26,-96.76 0.44,-79.59 15.1,-126.17 -91.59,-112.81 -12.18,1.52 -34.41,5.44 -40.8,12.23 -9.09,9.65 -3.7,29.91 1.85,40.32zm-116.34 46.05c0.02,-13.37 1.22,-49.66 14.76,-57.1 6.45,-3.55 15.28,-1.37 18.45,2.58 5.63,7.01 5.16,31.97 4.01,42.44 -0.87,7.91 -0.82,7.17 -3.03,8.53 -4.59,2.84 -28.2,3.54 -34.19,3.55zm81.25 66.57c-6.68,1.36 -16.16,6.04 -24.99,8.25 -17.15,4.29 -42.33,7.94 -50.79,-9.92 -2.88,-6.06 -6.11,-19.68 -5.03,-27.12 18.4,-0.18 67.95,-1.39 82.42,-6.57 8.78,-48.8 16.84,-115.45 -33.88,-129.17 -26.65,-7.2 -59.16,0.75 -73.58,13.65 -31.97,28.58 -34.22,101.92 -28.53,141.61 3.93,27.38 11.77,45.09 30.81,57.24 19.47,12.44 52.45,12.88 78.15,6.51 11.12,-2.76 24.53,-7.42 28.56,-16.65 3.36,-7.72 1.1,-31.17 -3.14,-37.83zm-214.48 54.08c57.28,0.02 52.39,1.68 52.37,-19.13 -0.08,-98.74 1.45,-201.7 -0.02,-299.32 -9.59,-1.44 -38,-0.14 -45.1,3.55 -11.11,5.78 -7.77,25.7 -7.77,38.68 0,21.69 -1.3,267.01 0.52,276.22zm-31.16 -55.31c-12.51,2.69 -25.53,8.11 -43.54,5.09 -13.64,-2.28 -19.89,-11.86 -23.68,-23.85 -10.6,-33.47 -11.29,-129.42 6.94,-161.14 23.67,-41.21 56.05,-20.15 63.48,-18.6 5.26,-17.34 20.42,-48.78 -21.38,-53.24 -59.74,-6.38 -88.55,25.12 -102.34,77.1 -12.28,46.29 -19.73,193.31 23.35,221.86 9.7,6.42 19.24,10.02 34.13,11.74 22.32,2.58 61.07,-0.68 69.11,-23.1 3.96,-11.06 0.07,-28.22 -6.07,-35.86z"/>
    <path id="Logo" d="M372.73 712.5c77.58,0 155.74,-25.86 212.87,-75.05 9.75,-8.4 28.88,-25.42 36.55,-34.84 18.82,-23.13 23.75,-26.57 41.98,-58.5 57.12,-100.05 56.93,-235.67 -7.11,-335.56 -3.7,-5.76 -8.92,-12.72 -11.38,-17.76 -1.15,1.01 -0.57,0.26 -1.58,1.76l-3.12 7.33c-1.44,3.51 -2.31,5.77 -3.78,9.38 -10.13,24.81 -5.99,7.82 13.95,53.97 44.56,103.09 27.56,223.37 -43.41,308.99 -56.97,68.72 -142.85,112.43 -238.73,109.82 -190.83,-5.18 -316.95,-174.66 -290.09,-346.11 6.89,-44 21.78,-80.56 44.6,-116 3.24,-5.03 -1.3,-11.67 -3.9,-18.15 -2.41,-6 -4.98,-13.33 -7.79,-18.67 -72.97,94.83 -93.06,235.48 -27.85,355.6 56.64,104.33 165.65,173.79 288.79,173.79zm275.68 -345.33c-1.12,6.55 -10.48,25.68 -14.05,31.68 -43.29,72.87 -120.93,101.21 -209.93,101.37 -68.7,0.14 -93.39,-12.76 -152.51,-26.51 -42.07,-9.78 -91.56,-14.32 -131.57,7.3 -4.87,2.63 -8.98,5.87 -13.52,8.12l0.5 4.26 22.63 36.61c67.87,92.46 179.12,136.56 297.4,106.38 103.17,-26.32 184.04,-117.96 200.45,-220.33 1.49,-9.32 6.66,-49.15 3.15,-55.59 -1.66,2.97 -1.49,3.43 -2.55,6.71zm-521.08 126.22l-0.5 -4.26c4.54,-2.25 8.65,-5.49 13.52,-8.12 40.01,-21.62 89.5,-17.08 131.57,-7.3 59.12,13.75 83.81,26.65 152.51,26.51 89,-0.16 166.64,-28.5 209.93,-101.37 3.57,-6 12.93,-25.13 14.05,-31.68 -1.62,1.22 -0.5,0.13 -1.84,1.56 -1.91,2.04 -8.92,21.04 -20.17,33.54l-16.25 18.5c-7.88,8.23 -21.88,18.61 -31.77,24.63l-46.76 21.64c-18.86,4.54 -25.84,7.64 -47.69,9.78 -57.94,5.69 -114.94,-3.12 -169.22,-21.3l-40.68 -15.72c-9.4,-3.85 -33.2,-11.87 -42.94,-14.06 -3.52,-0.79 -6.46,-0.81 -9.68,-1.73 -10.76,-3.07 -29.66,-4.17 -42.3,-4.07 -25.44,0.19 -42.72,6.12 -63.09,16.93 -2.22,1.18 -1.41,0.67 -3.55,2.19 -1.61,1.16 -2.5,1.9 -3.64,2.82 -0.03,12.1 12.69,34.7 16.43,47.76 0.02,0.06 -0.44,2.01 2.07,3.75zm24.52 -117.68c-5.85,0.51 -8.14,-4.97 -16.3,-11.54 -2.76,-2.23 -17.31,-9.27 -6.32,-14.28 12.08,-5.5 33.46,12.87 22.62,25.82zm-31.82 -32.67c-20.02,5.19 -29.89,24.95 -24.84,41.76 12.96,43.13 76.72,27.09 66.35,-17.61 -3.62,-15.59 -21.12,-29.44 -41.51,-24.15zm61.68 -20.49c6.92,-9.07 24.08,4.02 18.08,14.07 -5.57,0.71 -5.95,-2.59 -10.04,-5.93 -3.95,-3.22 -7.31,-3.46 -8.04,-8.14zm-7.06 -6.57c-28.47,14.39 -9.66,53.28 17.33,42.98 10.57,-4.04 17.88,-16.3 13.13,-29.43 -3.2,-8.82 -17.97,-19.86 -30.46,-13.55zm420.87 50.7c-2.83,-2.12 -11.54,-6.56 -4.2,-9.75 7.31,-3.19 20.76,6.42 15.42,17.16 -5.83,0.26 -7.03,-4.27 -11.22,-7.41zm-9.48 -14.44c-29.9,6.36 -21.52,49.89 9.49,44.6 28.07,-4.8 21.6,-51.22 -9.49,-44.6zm39.14 -32c-21.35,7.53 -11.72,39.35 11.54,33.15 20.42,-5.44 12.68,-41.7 -11.54,-33.15zm-475.74 -38.75c-22.95,6.35 -13.63,40.12 9.75,33.58 21.21,-5.94 12.85,-39.84 -9.75,-33.58zm44.14 -21.04c-16.14,4.36 -8.81,25.9 6,21.85 13.41,-3.67 8.41,-25.74 -6,-21.85zm402.02 29.1c-14.95,4.55 -8.98,25.79 6.17,21.74 13.94,-3.74 8.21,-26.12 -6.17,-21.74zm-269.76 -32.51c10.96,1.14 21.86,9.44 33.78,2.64 6.32,-3.6 17.07,-19.53 18.27,-23.05 -0.87,9.43 -9.83,22.82 -3.48,34.49 3.77,6.93 14.84,13.55 22.45,18.34 -10.34,-1.31 -22.45,-9.06 -33.66,-2.77 -7.16,4.02 -13.37,14.81 -18.53,22.61 1.75,-10.14 8.98,-22.53 3.5,-33.54 -3.87,-7.78 -15.67,-13.65 -22.33,-18.72zm-106.4 -76.23c5.31,-2.94 15.31,-3.7 21.67,-5.69 26.47,-8.32 25.21,-21.75 27.41,-53.46 2.04,4.27 3.86,16.86 5.55,22.5 9.03,30.12 25.32,25.05 54.23,28.53 -42.09,8.02 -49.15,10.71 -50.96,56.61 -7.37,-9.14 0.45,-40.42 -33.75,-46.2 -6.09,-1.03 -20.24,-0.84 -24.15,-2.29zm154.26 -44.48c18.29,-6.98 19.96,-0.14 23.05,-24.42l0.89 1.47c2.53,5.07 1.6,11.13 7.6,15.26 5.33,3.66 12.78,2.76 19.54,4.05 -3.59,-0.63 -16.01,3.89 -18.66,6.34 -4.82,4.44 -4.58,12.56 -5.45,20.11 -2.33,-6.45 -2.42,-13.62 -6.98,-18.03 -4.42,-4.27 -12.43,-3.98 -19.99,-4.78zm-141.93 75.42c-1.97,16.65 -15.49,174.43 -15.22,193.9 13.86,-1.7 26.93,-6.11 43.26,7.16 3.4,2.76 6.58,7.55 9.3,9.09 0.09,-39.81 53.86,-40.5 55.9,-1.64 11.66,-0.35 19.2,-2.31 31.83,4.52 3.3,1.79 5.05,3.77 8.52,5.01 2.29,-9.59 6.38,-16.1 13.15,-20.72 11.16,-7.61 14.9,-4.41 27.71,-5.1 1.98,-34.96 52.78,-16.92 33.73,11.07 28.26,-1.78 30.38,1.76 47.46,18.54 10.85,-5.73 24.48,-17.09 46.69,-4.64 5.14,2.87 6.95,5.93 11.42,9.09 -0.38,-28.51 -6.26,-81.52 -8.19,-113.59 -2.26,-37.52 -7.3,-75.71 -9.35,-112.72 3.62,0.55 18.17,7.76 23.01,9.78 11.63,4.85 40.32,16.45 52.24,11.14 5.2,-2.32 9.04,-16.52 11.4,-22.37l28.98 -71.52c5.79,-14.71 6.38,-10.88 -2.68,-22.1 -28,-34.62 -81.53,-59.02 -125.88,-74.2 -12.15,-4.15 -41.46,-14.07 -53.56,-15.03 -18.45,70.11 -101.22,85.23 -145.1,36.01 -13.72,-15.39 -16.67,-32.9 -18.85,-36.11 -20.19,2.05 -80.25,24.27 -99.43,33.52 -33.22,16.03 -58.94,31.8 -79.11,55.21 -11.02,12.81 -8.3,9.81 6.28,45.28 3.02,7.32 25.99,67.76 29.97,70.54 15.06,10.51 68.18,-18.34 76.52,-20.12z"/>
   </g>
  </g>
 </g>
</svg>
